{
  "accessors": [
    {
      "bufferView": 2,
      "componentType": 5126,
      "count": 18630,
      "max": [
        2.5999999046325684,
        6.300000190734863,
        6.199999809265137
      ],
      "min": [
        -7.400000095367432,
        -7.400001049041748,
        -9.999999974752427e-07
      ],
      "type": "VEC3"
    },
    {
      "bufferView": 2,
      "byteOffset": 223560,
      "componentType": 5126,
      "count": 18630,
      "max": [
        1.0,
        1.0,
        1.0
      ],
      "min": [
        -1.0,
        -1.0,
        -1.0
      ],
      "type": "VEC3"
    },
    {
      "bufferView": 1,
      "componentType": 5126,
      "count": 18630,
      "max": [
        0.9785159826278687,
        0.5
      ],
      "min": [
        0.8144530057907104,
        0.5
      ],
      "type": "VEC2"
    },
    {
      "bufferView": 0,
      "componentType": 5125,
      "count": 35574,
      "type": "SCALAR"
    },
    {
      "bufferView": 2,
      "byteOffset": 447120,
      "componentType": 5126,
      "count": 8960,
      "max": [
        6.300000190734863,
        1.2000000476837158,
        7.300000190734863
      ],
      "min": [
        -2.5999999046325684,
        -6.200000762939453,
        -0.0
      ],
      "type": "VEC3"
    },
    {
      "bufferView": 2,
      "byteOffset": 554640,
      "componentType": 5126,
      "count": 8960,
      "max": [
        1.0,
        1.0,
        1.0
      ],
      "min": [
        -1.0,
        -1.0,
        -1.0
      ],
      "type": "VEC3"
    },
    {
      "bufferView": 1,
      "byteOffset": 149040,
      "componentType": 5126,
      "count": 8960,
      "max": [
        0.9941409826278687,
        0.5
      ],
      "min": [
        0.9394530057907104,
        0.5
      ],
      "type": "VEC2"
    },
    {
      "bufferView": 0,
      "byteOffset": 142296,
      "componentType": 5125,
      "count": 16644,
      "type": "SCALAR"
    },
    {
      "bufferView": 2,
      "byteOffset": 662160,
      "componentType": 5126,
      "count": 4,
      "max": [
        64.70156860351563,
        64.70156860351563,
        0.0
      ],
      "min": [
        -64.70156860351563,
        -64.70156860351563,
        0.0
      ],
      "type": "VEC3"
    },
    {
      "bufferView": 2,
      "byteOffset": 662208,
      "componentType": 5126,
      "count": 4,
      "max": [
        0.0,
        -0.0,
        1.0
      ],
      "min": [
        0.0,
        -0.0,
        1.0
      ],
      "type": "VEC3"
    },
    {
      "bufferView": 0,
      "byteOffset": 208872,
      "componentType": 5125,
      "count": 6,
      "type": "SCALAR"
    }
  ],
  "asset": {
    "extras": {
      "author": "Leo Fossa (https://sketchfab.com/utsuki)",
      "license": "CC-BY-4.0 (http://creativecommons.org/licenses/by/4.0/)",
      "source": "https://sketchfab.com/3d-models/avengers-voxel-1aa3f54729504bc7aa58cda319341732",
      "title": "Avengers voxel"
    },
    "generator": "Sketchfab-12.68.0",
    "version": "2.0"
  },
  "bufferViews": [
    {
      "buffer": 0,
      "byteLength": 208896,
      "name": "floatBufferViews",
      "target": 34963
    },
    {
      "buffer": 0,
      "byteLength": 220720,
      "byteOffset": 208896,
      "byteStride": 8,
      "name": "floatBufferViews",
      "target": 34962
    },
    {
      "buffer": 0,
      "byteLength": 662256,
      "byteOffset": 429616,
      "byteStride": 12,
      "name": "floatBufferViews",
      "target": 34962
    }
  ],
  "buffers": [
    {
      "byteLength": 1091872,
      "uri": "scene.bin"
    }
  ],
  "images": [
    {
      "uri": "textures/avengers_baseColor.png"
    },
    {
      "uri": "textures/avengers_metallicRoughness.png"
    },
    {
      "uri": "textures/avengers_emissive.png"
    },
    {
      "uri": "textures/avengers_NONE_baseColor.png"
    }
  ],
  "materials": [
    {
      "doubleSided": true,
      "emissiveFactor": [
        1.0,
        1.0,
        1.0
      ],
      "emissiveTexture": {
        "index": 2
      },
      "name": "avengers",
      "pbrMetallicRoughness": {
        "baseColorTexture": {
          "index": 0
        },
        "metallicRoughnessTexture": {
          "index": 1
        }
      }
    },
    {
      "alphaMode": "BLEND",
      "emissiveFactor": [
        1.0,
        1.0,
        1.0
      ],
      "emissiveTexture": {
        "index": 2
      },
      "name": "avengers_NONE",
      "pbrMetallicRoughness": {
        "baseColorTexture": {
          "index": 3
        },
        "metallicRoughnessTexture": {
          "index": 1
        }
      }
    },
    {
      "doubleSided": true,
      "name": "ground",
      "pbrMetallicRoughness": {
        "baseColorFactor": [
          0.391101372,
          0.391101372,
          0.391101372,
          1.0
        ],
        "metallicFactor": 0.0,
        "roughnessFactor": 0.3179306402
      }
    }
  ],
  "meshes": [
    {
      "name": "Object_0",
      "primitives": [
        {
          "attributes": {
            "NORMAL": 1,
            "POSITION": 0,
            "TEXCOORD_0": 2
          },
          "indices": 3,
          "material": 0,
          "mode": 4
        }
      ]
    },
    {
      "name": "Object_1",
      "primitives": [
        {
          "attributes": {
            "NORMAL": 5,
            "POSITION": 4,
            "TEXCOORD_0": 6
          },
          "indices": 7,
          "material": 1,
          "mode": 4
        }
      ]
    },
    {
      "name": "Object_2",
      "primitives": [
        {
          "attributes": {
            "NORMAL": 9,
            "POSITION": 8
          },
          "indices": 10,
          "material": 2,
          "mode": 4
        }
      ]
    }
  ],
  "nodes": [
    {
      "children": [
        1
      ],
      "matrix": [
        0.1931961327791214,
        0.0,
        0.0,
        0.0,
        0.0,
        4.28981589759839e-17,
        -0.1931961327791214,
        0.0,
        0.0,
        0.1931961327791214,
        4.28981589759839e-17,
        0.0,
        0.0,
        0.0,
        0.0,
        1.0
      ],
      "name": "Sketchfab_model"
    },
    {
      "children": [
        2,
        3,
        4
      ],
      "name": "avengers.obj.cleaner.materialmerger.gles"
    },
    {
      "mesh": 0,
      "name": "Object_2"
    },
    {
      "mesh": 1,
      "name": "Object_3"
    },
    {
      "mesh": 2,
      "name": "Object_4"
    }
  ],
  "samplers": [
    {
      "magFilter": 9729,
      "minFilter": 9987,
      "wrapS": 10497,
      "wrapT": 10497
    }
  ],
  "scene": 0,
  "scenes": [
    {
      "name": "Sketchfab_Scene",
      "nodes": [
        0
      ]
    }
  ],
  "textures": [
    {
      "sampler": 0,
      "source": 0
    },
    {
      "sampler": 0,
      "source": 1
    },
    {
      "sampler": 0,
      "source": 2
    },
    {
      "sampler": 0,
      "source": 3
    }
  ]
}
